# xmcd CD database file
# Copyright (C) 1996 Ti Kan
#
# Track frame offsets:
# 	165
# 	18577
# 	42270
# 	72610
# 	95315
# 	118235
# 	133025
# 	155450
# 	178770
# 	207110
# 	227400
# 	267945
# 	280005
#
# Disc length: 3972 seconds
#
# Revision: 1
# Processed by: cddbd v1.4b41PL1 Copyright (c) Steve Scherf et al.
# Submitted via: DiscPlay 3.4
#
DISCID=b70f820d
DTITLE=Georgie Fame - Cool Cat Blues
DYEAR=1900
DGENRE=
TTITLE0=Cool Cat Blues
TTITLE1=Every Knock Is A Boost
TTITLE2=Moondance
TTITLE3=It Should Have Been me
TTITLE4=Yeah Yeah
TTITLE5=I Love The Life I Live
TTITLE6=Big Brother
TTITLE7=Georgia
TTITLE8=Cat's Eyes
TTITLE9=You Came A Long Way From St. Louis
TTITLE10=Survival
TTITLE11=Little Pony
TTITLE12=Rocking Chair
EXTD=
EXTT0=
EXTT1=
EXTT2=
EXTT3=
EXTT4=
EXTT5=
EXTT6=
EXTT7=
EXTT8=
EXTT9=
EXTT10=
EXTT11=
EXTT12=
PLAYORDER=
